<svg width="64" height="64" viewBox="0 0 200 240" fill="none" xmlns="http://www.w3.org/2000/svg">
  <defs>
    <linearGradient id="buildicyTopFaceGrad" x1="30" y1="50" x2="170" y2="220" gradientUnits="userSpaceOnUse">
      <stop offset="0%" stop-color="#C084FC" />
      <stop offset="100%" stop-color="#9333EA" />
    </linearGradient>
    <linearGradient id="buildicyLeftFaceGrad" x1="30" y1="70" x2="100" y2="240" gradientUnits="userSpaceOnUse">
      <stop offset="0%" stop-color="#7E22CE" />
      <stop offset="100%" stop-color="#6B21A8" />
    </linearGradient>
    <linearGradient id="buildicyRightFaceGrad" x1="100" y1="70" x2="170" y2="240" gradientUnits="userSpaceOnUse">
      <stop offset="0%" stop-color="#581C87" />
      <stop offset="100%" stop-color="#3B0764" />
    </linearGradient>
    <radialGradient id="buildicyOrbGrad" cx="50%" cy="50%" r="50%">
      <stop offset="0%" stop-color="#FFFFFF" />
      <stop offset="35%" stop-color="#DDD6FE" />
      <stop offset="70%" stop-color="#6D28D9" />
      <stop offset="100%" stop-color="#1E1B4B" />
    </radialGradient>
    <filter id="buildicyShadowBlur" x="10" y="220" width="180" height="30" filterUnits="userSpaceOnUse">
      <feGaussianBlur stdDeviation="4" />
    </filter>
  </defs>

  <ellipse cx="100" cy="235" rx="60" ry="10" fill="#1E1B4B" opacity="0.45" filter="url(#buildicyShadowBlur)" />

  <circle cx="100" cy="30" r="22" fill="#1E1B4B" stroke="#4C1D95" stroke-width="2" />
  <circle cx="100" cy="30" r="14" fill="#311059" stroke="#6D28D9" stroke-width="2" />
  <circle cx="100" cy="30" r="7" fill="url(#buildicyOrbGrad)" />
  <circle cx="100" cy="30" r="3" fill="#FFFFFF" />

  <path d="M100 52 L136 70 L100 88 L64 70 Z" fill="url(#buildicyTopFaceGrad)" />
  <path d="M64 70 L100 88 L100 102 L64 84 Z" fill="url(#buildicyLeftFaceGrad)" />
  <path d="M100 88 L136 70 L136 84 L100 102 Z" fill="url(#buildicyRightFaceGrad)" />

  <path d="M100 96 L150 121 L100 146 L50 121 Z" fill="url(#buildicyTopFaceGrad)" />
  <path d="M50 121 L100 146 L100 162 L50 137 Z" fill="url(#buildicyLeftFaceGrad)" />
  <path d="M100 146 L150 121 L150 137 L100 162 Z" fill="url(#buildicyRightFaceGrad)" />

  <path d="M100 152 L172 188 L100 224 L28 188 Z" fill="url(#buildicyTopFaceGrad)" />
  <path d="M28 188 L100 224 L100 242 L28 206 Z" fill="url(#buildicyLeftFaceGrad)" />
  <path d="M100 224 L172 188 L172 206 L100 242 Z" fill="url(#buildicyRightFaceGrad)" />
</svg>
